<?xml version="1.0" standalone="no"?><!DOCTYPE svg PUBLIC "-//W3C//DTD SVG 1.1//EN" "http://www.w3.org/Graphics/SVG/1.1/DTD/svg11.dtd"><svg t="1607512413475" class="icon" viewBox="0 0 1029 1024" version="1.1" xmlns="http://www.w3.org/2000/svg" p-id="3267" width="32.15625" height="32" xmlns:xlink="http://www.w3.org/1999/xlink"><defs><style type="text/css"></style></defs><path d="M439.778338 844.735516C197.319899 844.735516 0 656.443325 0 424.302267S197.319899 3.869018 439.778338 3.869018s439.778338 188.292191 439.778337 420.433249c0 119.939547-54.166247 234.720403-147.02267 314.680101-10.31738 9.027708-27.083123 7.738035-36.110831-2.579345-9.027708-10.31738-7.738035-27.083123 2.579345-36.110832 82.539043-69.642317 128.967254-170.236776 128.967254-274.700251 0-203.768262-174.105793-368.846348-388.191435-368.846348S51.586902 220.534005 51.586902 424.302267s174.105793 368.846348 388.191436 368.846348c29.662469 0 59.324937-2.579345 87.697733-9.027708 14.186398-2.579345 27.083123 5.15869 30.952141 19.345088 2.579345 14.186398-5.15869 27.083123-19.345089 30.952141-33.531486 6.448363-67.062972 10.31738-99.304785 10.31738z" fill="#8a8a8a" p-id="3268"></path><path d="M1004.654912 1022.710327c-6.448363 0-12.896725-2.579345-18.055416-7.738035L696.423174 737.692695c-10.31738-10.31738-10.31738-25.793451-1.289673-36.110831s25.793451-10.31738 36.110831-1.289673l290.176323 277.279597c10.31738 10.31738 10.31738 25.793451 1.289672 36.110832-3.869018 6.448363-10.31738 9.027708-18.055415 9.027707z" fill="#8a8a8a" p-id="3269"></path></svg>